<svg id="Grupo_14" data-name="Grupo 14" xmlns="http://www.w3.org/2000/svg" width="105.103" height="69.221" viewBox="0 0 105.103 69.221">
  <path id="Caminho_209" data-name="Caminho 209" d="M371.237,268.919a80.362,80.362,0,0,1-32.582-7.136,3.441,3.441,0,0,1-2.04-3.158v-28.02a3.466,3.466,0,0,1,3.462-3.462H402.4a3.466,3.466,0,0,1,3.462,3.462v28.02a3.441,3.441,0,0,1-2.04,3.158h0a80.362,80.362,0,0,1-32.582,7.136Z" transform="translate(-318.347 -199.697)" fill="#d7b5bb"/>
  <path id="Caminho_210" data-name="Caminho 210" d="M365.753,237.993a3.466,3.466,0,0,1-1.345-.27l-49.42-20.85a3.462,3.462,0,0,1,.118-6.427l49.42-18.748A3.45,3.45,0,0,1,367,191.7l48.758,18.748a3.462,3.462,0,0,1,.118,6.415l-48.759,20.85A3.468,3.468,0,0,1,365.753,237.993Z" transform="translate(-312.872 -191.471)" fill="#c3a5ae"/>
  <ellipse id="Elipse_36" data-name="Elipse 36" cx="4.616" cy="4.616" rx="4.616" ry="4.616" transform="translate(19.421 54.759)" fill="#3f3d56"/>
  <path id="Caminho_211" data-name="Caminho 211" d="M416.253,220.245l-48.759,20.85a3.078,3.078,0,0,1-2.406.006l-49.42-20.85a3.02,3.02,0,0,1-1.472-1.293,3.075,3.075,0,0,0,1.472,4.371l49.42,20.85a3.078,3.078,0,0,0,2.406-.006l48.759-20.85a3.075,3.075,0,0,0,1.458-4.365,3.021,3.021,0,0,1-1.458,1.287Z" transform="translate(-313.082 -197.81)" opacity="0.2"/>
  <path id="Caminho_212" data-name="Caminho 212" d="M344.388,257.441a.769.769,0,0,0,.769-.769V230.926l25.376-9.244a.769.769,0,1,0,.023-1.539l-25.376,9.244a1.509,1.509,0,0,0-1.1.443,1.528,1.528,0,0,0-.459,1.1v25.745a.769.769,0,0,0,.769.769Z" transform="translate(-319.962 -198.083)" fill="#3f3d56"/>
</svg>
