<svg xmlns="http://www.w3.org/2000/svg" width="103.137" height="100.106" viewBox="0 0 103.137 100.106">
  <g id="Grupo_15" data-name="Grupo 15" transform="translate(-57.189 -0.01)">
    <path id="Caminho_215" data-name="Caminho 215" d="M573.74,115.735l54.3,27.3a2.567,2.567,0,0,1,1.408,2.467l-3.155,46.729a1.272,1.272,0,0,1-1.843,1.05l-55.536-28.343,2.851-48.062a1.365,1.365,0,0,1,1.976-1.139Z" transform="translate(-469.126 -115.58)" fill="#d0cde1"/>
    <path id="Caminho_216" data-name="Caminho 216" d="M578.589,122.117l52.964,26.628a2.5,2.5,0,0,1,1.374,2.406l-3.077,45.581a1.241,1.241,0,0,1-1.8,1.024L573.88,170.11l2.781-46.882a1.332,1.332,0,0,1,1.928-1.111Z" transform="translate(-473.35 -121.01)" fill="#3f3d56"/>
    <path id="Caminho_217" data-name="Caminho 217" d="M596.6,145.823l48.01,24.138a2.27,2.27,0,0,1,1.245,2.181l-2.789,41.318a1.125,1.125,0,0,1-1.63.928l-49.105-25.061,2.521-42.5a1.207,1.207,0,0,1,1.748-1.007Z" transform="translate(-489.039 -141.179)" fill="#fff"/>
    <path id="Caminho_218" data-name="Caminho 218" d="M285.146,465.987l54.367,27.38a3.62,3.62,0,0,0,3.261,0l40.219-20.417a1.688,1.688,0,0,0,.255-1.7,3.777,3.777,0,0,0-.3-.733l-5.481-2.883-46.08-22.991-2.753-1.461a5.1,5.1,0,0,0-4.735-.019L285.129,463.3a1.505,1.505,0,0,0,.017,2.683Z" transform="translate(-227.125 -393.637)" fill="#d0cde1"/>
    <path id="Caminho_219" data-name="Caminho 219" d="M285.142,589.9l54.367,27.38a3.62,3.62,0,0,0,3.261,0l40.219-20.417a1.688,1.688,0,0,0,.255-1.7L343.145,616a3.5,3.5,0,0,1-3.173.027l-55.642-27.721A1.5,1.5,0,0,0,285.142,589.9Z" transform="translate(-227.121 -517.545)" opacity="0.1"/>
    <path id="Caminho_220" data-name="Caminho 220" d="M461.425,601.662l-17.607-8.9a2.474,2.474,0,0,0-2.282.026l-10.214,5.457a.731.731,0,0,0,.015,1.3L449.29,608.6a2.033,2.033,0,0,0,1.914-.044l10.255-5.777a.629.629,0,0,0-.033-1.114Z" transform="translate(-351.801 -521.108)" opacity="0.1"/>
    <path id="Caminho_221" data-name="Caminho 221" d="M489.022,484.786l-18.947,10.065a1.541,1.541,0,0,1-1.419.014l-53.532-27.071a.91.91,0,0,1,.007-1.628l18.5-9.157a2.006,2.006,0,0,1,1.793.006l53.588,27a.434.434,0,0,1,.008.771Z" transform="translate(-337.931 -405.72)" opacity="0.1"/>
    <rect id="Retângulo_16" data-name="Retângulo 16" width="0.212" height="19.475" transform="matrix(0.447, -0.894, 0.894, 0.447, 120.77, 29.058)" fill="#6c63ff"/>
    <rect id="Retângulo_17" data-name="Retângulo 17" width="0.212" height="19.571" transform="translate(120.766 31.612) rotate(-62.909)" fill="#6c63ff"/>
    <rect id="Retângulo_18" data-name="Retângulo 18" width="0.212" height="11.211" transform="matrix(0.455, -0.89, 0.89, 0.455, 123.957, 36.492)" fill="#6c63ff"/>
    <path id="Caminho_239" data-name="Caminho 239" d="M365.539,95.328,364,98.987l12.987,6.817L381.362,93" transform="translate(-260.889 -79.072)" fill="#f2f2f2"/>
    <path id="Caminho_240" data-name="Caminho 240" d="M374.987,49.988l5.737-13.5L367.538,30,362,43.171Z" transform="translate(-259.188 -25.501)" fill="#997698"/>
    <rect id="Retângulo_19" data-name="Retângulo 19" width="0.212" height="11.211" transform="matrix(0.455, -0.89, 0.89, 0.455, 107.941, 9.85)" fill="#fff"/>
    <rect id="Retângulo_20" data-name="Retângulo 20" width="0.212" height="11.211" transform="matrix(0.455, -0.89, 0.89, 0.455, 107.193, 11.646)" fill="#fff"/>
  </g>
</svg>
