<svg xmlns="http://www.w3.org/2000/svg" width="68.826" height="68.826" viewBox="0 0 68.826 68.826">
  <path id="Icon_metro-facebook" data-name="Icon metro-facebook" d="M59.927,1.928H14.04A11.471,11.471,0,0,0,2.571,13.4V59.282A11.471,11.471,0,0,0,14.04,70.754H36.984V40.643h-8.6v-8.6h8.6V25.587A10.754,10.754,0,0,1,47.738,14.833H58.492v8.6H47.738a2.151,2.151,0,0,0-2.151,2.151v6.452H57.417l-2.151,8.6H45.587V70.754h14.34A11.471,11.471,0,0,0,71.4,59.282V13.4A11.471,11.471,0,0,0,59.927,1.928Z" transform="translate(-2.571 -1.928)" fill="#9055a2"/>
</svg>
