<svg id="Grupo_9" data-name="Grupo 9" xmlns="http://www.w3.org/2000/svg" width="117.555" height="75.783" viewBox="0 0 117.555 75.783">
  <path id="Caminho_117" data-name="Caminho 117" d="M504.11,234.662H392.35a2.881,2.881,0,0,1-2.878-2.878V162.871a2.11,2.11,0,0,1,2.108-2.108H504.842a2.147,2.147,0,0,1,2.145,2.145v68.877A2.881,2.881,0,0,1,504.11,234.662Z" transform="translate(-389.432 -158.879)" fill="#f2f2f2"/>
  <path id="Caminho_118" data-name="Caminho 118" d="M519.895,258.2H415.738a2.688,2.688,0,0,1-2.769-2.593V195.6a1.993,1.993,0,0,1,2.052-1.923H520.578a2.026,2.026,0,0,1,2.086,1.955v59.979A2.688,2.688,0,0,1,519.895,258.2Z" transform="translate(-408.831 -186.049)" fill="#fff"/>
  <path id="Caminho_119" data-name="Caminho 119" d="M506.756,154.309H389.241v-1.465a2.89,2.89,0,0,1,2.888-2.886H503.868a2.89,2.89,0,0,1,2.888,2.886Z" transform="translate(-389.241 -149.958)" fill="#3f3d56"/>
  <ellipse id="Elipse_14" data-name="Elipse 14" cx="0.747" cy="0.747" rx="0.747" ry="0.747" transform="translate(4.501 1.433)" fill="#fff"/>
  <ellipse id="Elipse_15" data-name="Elipse 15" cx="0.747" cy="0.747" rx="0.747" ry="0.747" transform="translate(7.337 1.433)" fill="#fff"/>
  <ellipse id="Elipse_16" data-name="Elipse 16" cx="0.747" cy="0.747" rx="0.747" ry="0.747" transform="translate(10.172 1.433)" fill="#fff"/>
  <path id="Caminho_120" data-name="Caminho 120" d="M611.441,258.07H591.07a1.145,1.145,0,0,1,0-2.29h20.371a1.145,1.145,0,1,1,0,2.29Z" transform="translate(-554.927 -237.325)" fill="#ccc"/>
  <path id="Caminho_121" data-name="Caminho 121" d="M756.588,258.07H736.217a1.145,1.145,0,1,1,0-2.29h20.371a1.145,1.145,0,1,1,0,2.29Z" transform="translate(-674.76 -237.325)" fill="#ccc"/>
  <path id="Caminho_122" data-name="Caminho 122" d="M685.258,282.952H649.82a1.145,1.145,0,0,1,0-2.29h35.438a1.145,1.145,0,0,1,0,2.29Z" transform="translate(-603.431 -257.868)" fill="#ccc"/>
  <path id="Caminho_123" data-name="Caminho 123" d="M611.441,232.842H591.07a1.145,1.145,0,0,1,0-2.29h20.371a1.145,1.145,0,1,1,0,2.29Z" transform="translate(-554.927 -216.497)" fill="#ccc"/>
  <path id="Caminho_124" data-name="Caminho 124" d="M744.767,233.188h-5.786a1.145,1.145,0,1,1,0-2.29h5.786a1.145,1.145,0,1,1,0,2.29Z" transform="translate(-677.043 -216.782)" fill="#ccc"/>
  <path id="Caminho_125" data-name="Caminho 125" d="M596.856,282.952H591.07a1.145,1.145,0,0,1,0-2.29h5.786a1.145,1.145,0,0,1,0,2.29Z" transform="translate(-554.927 -257.868)" fill="#ccc"/>
  <path id="Caminho_126" data-name="Caminho 126" d="M611.441,491.07H591.07a1.145,1.145,0,0,1,0-2.29h20.371a1.145,1.145,0,1,1,0,2.29Z" transform="translate(-554.927 -429.69)" fill="#ccc"/>
  <path id="Caminho_127" data-name="Caminho 127" d="M756.588,491.07H736.217a1.145,1.145,0,1,1,0-2.29h20.371a1.145,1.145,0,1,1,0,2.29Z" transform="translate(-674.76 -429.69)" fill="#ccc"/>
  <path id="Caminho_128" data-name="Caminho 128" d="M685.258,515.952H649.82a1.145,1.145,0,0,1,0-2.29h35.438a1.145,1.145,0,0,1,0,2.29Z" transform="translate(-603.431 -450.233)" fill="#ccc"/>
  <path id="Caminho_129" data-name="Caminho 129" d="M611.441,465.842H591.071a1.145,1.145,0,1,1,0-2.29h20.371a1.145,1.145,0,0,1,0,2.29Z" transform="translate(-554.927 -408.862)" fill="#ccc"/>
  <path id="Caminho_130" data-name="Caminho 130" d="M744.767,466.188h-5.786a1.145,1.145,0,1,1,0-2.29h5.786a1.145,1.145,0,1,1,0,2.29Z" transform="translate(-677.043 -409.148)" fill="#ccc"/>
  <path id="Caminho_131" data-name="Caminho 131" d="M596.856,515.952h-5.786a1.145,1.145,0,1,1,0-2.29h5.786a1.145,1.145,0,0,1,0,2.29Z" transform="translate(-554.927 -450.233)" fill="#ccc"/>
  <path id="Caminho_132" data-name="Caminho 132" d="M638.827,344.682a1.639,1.639,0,0,1-1.155-.473l-7.657-7.562a1.6,1.6,0,0,1,0-2.271l7.627-7.531a1.692,1.692,0,0,1,2.379.008h0a1.69,1.69,0,0,1,0,2.387l-5.667,5.667a.944.944,0,0,0,0,1.333l5.636,5.637a1.642,1.642,0,0,1-1.163,2.8Z" transform="translate(-587.632 -295.596)" fill="#ad9292"/>
  <path id="Caminho_133" data-name="Caminho 133" d="M744.769,344.682a1.642,1.642,0,0,1-1.163-2.8l5.636-5.637a.944.944,0,0,0,0-1.333l-5.667-5.667a1.688,1.688,0,0,1,0-2.387h0a1.692,1.692,0,0,1,2.379-.008l7.627,7.531a1.6,1.6,0,0,1,0,2.271l-7.657,7.562A1.639,1.639,0,0,1,744.769,344.682Z" transform="translate(-681.373 -295.596)" fill="#ad9292"/>
</svg>
