<svg xmlns="http://www.w3.org/2000/svg" width="68.634" height="68.619" viewBox="0 0 68.634 68.619">
  <path id="Icon_awesome-instagram" data-name="Icon awesome-instagram" d="M34.319,18.954A17.593,17.593,0,1,0,51.912,36.547,17.565,17.565,0,0,0,34.319,18.954Zm0,29.031A11.438,11.438,0,1,1,45.757,36.547,11.458,11.458,0,0,1,34.319,47.985Zm22.416-29.75a4.1,4.1,0,1,1-4.1-4.1A4.094,4.094,0,0,1,56.735,18.234ZM68.387,22.4c-.26-5.5-1.516-10.366-5.543-14.378C58.833,4.01,53.964,2.754,48.467,2.479c-5.665-.322-22.646-.322-28.311,0-5.482.26-10.351,1.516-14.378,5.527S.511,16.887.236,22.384c-.322,5.665-.322,22.646,0,28.311.26,5.5,1.516,10.366,5.543,14.378s8.881,5.267,14.378,5.543c5.665.322,22.646.322,28.311,0,5.5-.26,10.366-1.516,14.378-5.543,4.012-4.012,5.267-8.881,5.543-14.378.322-5.665.322-22.63,0-28.3ZM61.069,56.774A11.58,11.58,0,0,1,54.546,63.3c-4.517,1.791-15.235,1.378-20.227,1.378s-15.725.4-20.227-1.378A11.58,11.58,0,0,1,7.57,56.774C5.779,52.257,6.192,41.539,6.192,36.547S5.794,20.822,7.57,16.32A11.58,11.58,0,0,1,14.093,9.8C18.61,8.006,29.328,8.42,34.319,8.42s15.725-.4,20.227,1.378a11.58,11.58,0,0,1,6.523,6.523c1.791,4.517,1.378,15.235,1.378,20.227S62.86,52.272,61.069,56.774Z" transform="translate(0.005 -2.238)" fill="#9055a2"/>
</svg>
