<svg id="Grupo_13" data-name="Grupo 13" xmlns="http://www.w3.org/2000/svg" width="52.672" height="105.633" viewBox="0 0 52.672 105.633">
  <path id="Caminho_179" data-name="Caminho 179" d="M404.207,447.1h.58V431.2a9.2,9.2,0,0,1,9.2-9.2h33.686a9.2,9.2,0,0,1,9.2,9.2v87.228a9.2,9.2,0,0,1-9.2,9.2H413.99a9.2,9.2,0,0,1-9.2-9.2V458.42h-.58Z" transform="translate(-404.207 -422)" fill="#3f3d56"/>
  <path id="Caminho_180" data-name="Caminho 180" d="M417.158,427.732h4.4a3.265,3.265,0,0,0,3.023,4.5h19.3a3.265,3.265,0,0,0,3.023-4.5h4.107a6.872,6.872,0,0,1,6.872,6.872v87.1a6.872,6.872,0,0,1-6.872,6.872H417.158a6.872,6.872,0,0,1-6.872-6.872h0V434.6A6.872,6.872,0,0,1,417.158,427.732Z" transform="translate(-407.746 -425.337)" fill="#fff"/>
  <circle id="Elipse_34" data-name="Elipse 34" cx="19.504" cy="19.504" r="19.504" transform="translate(6.85 33.415)" fill="#e0bbc0"/>
  <path id="Caminho_181" data-name="Caminho 181" d="M277.044,383.465l-5.837-7.506,3.394-2.64,2.764,3.554,9.338-9.857,3.122,2.958Z" transform="translate(-252.549 -322.313)" fill="#fff"/>
</svg>
