<svg xmlns="http://www.w3.org/2000/svg" width="393.795" height="268.969" viewBox="0 0 393.795 268.969">
  <g id="Grupo_16" data-name="Grupo 16" transform="translate(-54.692)">
    <path id="Caminho_262" data-name="Caminho 262" d="M703.486,469.327V250.883a25.3,25.3,0,0,0-25.262-25.262H334.954a25.3,25.3,0,0,0-25.262,25.262V469.327a25.3,25.3,0,0,0,25.262,25.262h343.27a25.3,25.3,0,0,0,25.262-25.262Zm-368.532,22.29a22.317,22.317,0,0,1-22.29-22.29V250.883a22.317,22.317,0,0,1,22.29-22.29h343.27a22.317,22.317,0,0,1,22.29,22.29V469.327a22.317,22.317,0,0,1-22.29,22.29Z" transform="translate(-255 -225.62)" fill="#3f3d56"/>
    <path id="Caminho_263" data-name="Caminho 263" d="M700.514,264.924H312.664a1.486,1.486,0,0,1,0-2.972H700.514a1.486,1.486,0,1,1,0,2.972Z" transform="translate(-255 -225.62)" fill="#3f3d56"/>
    <circle id="Elipse_39" data-name="Elipse 39" cx="7.43" cy="7.43" r="7.43" transform="translate(75.496 13.374)" fill="#89529d"/>
    <circle id="Elipse_40" data-name="Elipse 40" cx="7.43" cy="7.43" r="7.43" transform="translate(100.758 13.374)" fill="#89529d"/>
    <circle id="Elipse_41" data-name="Elipse 41" cx="7.43" cy="7.43" r="7.43" transform="translate(126.02 13.374)" fill="#89529d"/>
    <path id="Caminho_264" data-name="Caminho 264" d="M443.979,424.852a1,1,0,0,1-1-1c0-10.427-4.571-16.242-11.945-22.247a1,1,0,1,1,1.263-1.551c7.83,6.375,12.683,12.58,12.683,23.8a1,1,0,0,1-1,1Z" transform="translate(-255 -225.62)"/>
    <path id="Caminho_265" data-name="Caminho 265" d="M358.317,424.852a1,1,0,0,1-1-1c0-11.218,4.852-17.423,12.683-23.8a1,1,0,0,1,1.263,1.551c-7.374,6-11.945,11.821-11.945,22.247a1,1,0,0,1-1,1Z" transform="translate(-255 -225.62)"/>
    <path id="Caminho_266" data-name="Caminho 266" d="M435.413,356.322a1,1,0,0,1-.632-1.775c7.581-6.171,8.2-14.938,8.2-24.923a1,1,0,0,1,2,0c0,10.5-.672,19.748-8.935,26.474a.994.994,0,0,1-.631.225Z" transform="translate(-255 -225.62)"/>
    <path id="Caminho_267" data-name="Caminho 267" d="M366.882,355.787a.994.994,0,0,1-.631-.225c-8.263-6.727-8.935-15.727-8.935-25.939a1,1,0,0,1,2,0c0,10.037.6,18.206,8.2,24.388a1,1,0,0,1-.632,1.775Z" transform="translate(-255 -225.62)"/>
    <path id="Caminho_268" data-name="Caminho 268" d="M456.828,377.772H435.413a1,1,0,0,1,0-2h21.416a1,1,0,0,1,0,2Z" transform="translate(-255 -225.62)"/>
    <path id="Caminho_269" data-name="Caminho 269" d="M366.883,377.772H345.467a1,1,0,0,1,0-2h21.416a1,1,0,0,1,0,2Z" transform="translate(-255 -225.62)"/>
    <path id="Caminho_270" data-name="Caminho 270" d="M401.148,420.569a1,1,0,0,1-1-1v-68.53a1,1,0,0,1,2,0v68.53a1,1,0,0,1-1,1Z" transform="translate(-255 -225.62)"/>
    <path id="Caminho_271" data-name="Caminho 271" d="M401.148,420.569A35.305,35.305,0,0,1,365.883,385.3V359.586c0-16.468,13.513-26.7,35.265-26.7,22.741,0,35.265,9.482,35.265,26.7V385.3A35.305,35.305,0,0,1,401.148,420.569Zm0-85.681c-16.081,0-33.265,6.488-33.265,24.7V385.3a33.265,33.265,0,1,0,66.53,0V359.586C434.413,338.1,413.571,334.888,401.148,334.888Z" transform="translate(-255 -225.62)"/>
    <path id="Caminho_272" data-name="Caminho 272" d="M380.651,339.062a1,1,0,0,1-.929-.63,14.088,14.088,0,0,1-.988-4.532,22.476,22.476,0,0,1,22.355-22.409h.115a22.467,22.467,0,0,1,22.359,22.357,12.228,12.228,0,0,1-.91,4.211,1,1,0,1,1-1.85-.761,10.2,10.2,0,0,0,.761-3.487,20.454,20.454,0,0,0-20.363-20.32h-.11a20.461,20.461,0,0,0-20.359,20.362,12.075,12.075,0,0,0,.847,3.838,1,1,0,0,1-.928,1.371Z" transform="translate(-255 -225.62)"/>
    <path id="Caminho_273" data-name="Caminho 273" d="M502.71,333.623h-12a7,7,0,1,1,0-14h12a7,7,0,0,1,0,14Z" transform="translate(-255 -225.62)" fill="#ccc"/>
    <path id="Caminho_274" data-name="Caminho 274" d="M584.71,363.123h-12a7,7,0,1,1,0-14h12a7,7,0,0,1,0,14Z" transform="translate(-255 -225.62)" fill="#ccc"/>
    <path id="Caminho_275" data-name="Caminho 275" d="M622.71,363.123h-12a7,7,0,1,1,0-14h12a7,7,0,1,1,0,14Z" transform="translate(-255 -225.62)" fill="#ccc"/>
    <path id="Caminho_276" data-name="Caminho 276" d="M660.71,363.123h-12a7,7,0,0,1,0-14h12a7,7,0,1,1,0,14Z" transform="translate(-255 -225.62)" fill="#ccc"/>
    <path id="Caminho_277" data-name="Caminho 277" d="M585.71,334.123h-56a7,7,0,0,1,0-14h56a7,7,0,1,1,0,14Z" transform="translate(-255 -225.62)" fill="#ccc"/>
    <path id="Caminho_278" data-name="Caminho 278" d="M546.71,362.123h-56a7,7,0,0,1,0-14h56a7,7,0,0,1,0,14Z" transform="translate(-255 -225.62)" fill="#ccc"/>
    <path id="Caminho_279" data-name="Caminho 279" d="M656.71,334.123h-43a7,7,0,0,1,0-14h43a7,7,0,0,1,0,14Z" transform="translate(-255 -225.62)" fill="#ccc"/>
    <path id="Caminho_280" data-name="Caminho 280" d="M502.71,392.623h-12a7,7,0,0,1,0-14h12a7,7,0,0,1,0,14Z" transform="translate(-255 -225.62)" fill="#ccc"/>
    <path id="Caminho_281" data-name="Caminho 281" d="M585.71,393.123h-56a7,7,0,0,1,0-14h56a7,7,0,1,1,0,14Z" transform="translate(-255 -225.62)" fill="#ccc"/>
    <path id="Caminho_282" data-name="Caminho 282" d="M656.71,393.123h-43a7,7,0,0,1,0-14h43a7,7,0,0,1,0,14Z" transform="translate(-255 -225.62)" fill="#ccc"/>
    <path id="Caminho_283" data-name="Caminho 283" d="M637.71,416.623a7.008,7.008,0,0,1,7-7h12a7,7,0,0,1,0,14h-12a7.008,7.008,0,0,1-7-7Z" transform="translate(-255 -225.62)" fill="#ccc"/>
    <path id="Caminho_284" data-name="Caminho 284" d="M554.71,417.123a7.008,7.008,0,0,1,7-7h56a7,7,0,0,1,0,14h-56a7.008,7.008,0,0,1-7-7Z" transform="translate(-255 -225.62)" fill="#ccc"/>
    <path id="Caminho_285" data-name="Caminho 285" d="M483.71,417.123a7.008,7.008,0,0,1,7-7h43a7,7,0,0,1,0,14h-43A7.008,7.008,0,0,1,483.71,417.123Z" transform="translate(-255 -225.62)" fill="#ccc"/>
  </g>
</svg>
