<svg id="Grupo_8" data-name="Grupo 8" xmlns="http://www.w3.org/2000/svg" width="68.326" height="133.187" viewBox="0 0 68.326 133.187">
  <path id="Caminho_21" data-name="Caminho 21" d="M178.46,642.73a4.555,4.555,0,0,1,3.961,1.064s-1.008.907-3.379-.1Z" transform="translate(-175.104 -536.351)" fill="#6c63ff"/>
  <path id="Caminho_22" data-name="Caminho 22" d="M173.31,643a4.537,4.537,0,0,0-.518,4.07s1.226-.589,1.191-3.164Z" transform="translate(-170.218 -536.645)" fill="#6c63ff"/>
  <path id="Caminho_23" data-name="Caminho 23" d="M168.2,623.072s.85-1.84,4.895.384a2.177,2.177,0,0,1-2.154,1.247A2.632,2.632,0,0,1,168.2,623.072Z" transform="translate(-166.704 -519.744)" fill="#6c63ff"/>
  <path id="Caminho_57" data-name="Caminho 57" d="M223.53,558.214a2.746,2.746,0,0,1,2.4.644s-.611.544-2.043-.06Z" transform="translate(-212.003 -467.186)" fill="#6c63ff"/>
  <path id="Caminho_58" data-name="Caminho 58" d="M220.435,558.39a2.743,2.743,0,0,0-.312,2.46s.74-.363.725-1.913Z" transform="translate(-209.065 -467.374)" fill="#6c63ff"/>
  <path id="Caminho_59" data-name="Caminho 59" d="M217.34,546.332s.513-1.111,2.955.234a1.316,1.316,0,0,1-1.3.752A1.588,1.588,0,0,1,217.34,546.332Z" transform="translate(-206.935 -457.149)" fill="#6c63ff"/>
  <path id="Caminho_60" data-name="Caminho 60" d="M211.244,547.91s-1.226-.056-1.157,2.73a1.316,1.316,0,0,0,1.269-.809A1.59,1.59,0,0,0,211.244,547.91Z" transform="translate(-200.995 -458.794)" fill="#6c63ff"/>
  <path id="Caminho_61" data-name="Caminho 61" d="M211.75,530.8s.557-1.938,3.124-.758c0,0-.448,1.775-2.826,1.385Z" transform="translate(-202.358 -443.851)" fill="#6c63ff"/>
  <path id="Caminho_62" data-name="Caminho 62" d="M206.51,516.061s1.158-1.994,3.561-.377c0,0-.68,1.849-3.32,1.046Z" transform="translate(-198.068 -431.892)" fill="#6c63ff"/>
  <path id="Caminho_75" data-name="Caminho 75" d="M199.1,534.984s-1.78-.946-2.719,1.722c0,0,1.59.907,2.961-1.073Z" transform="translate(-189.775 -448.078)" fill="#6c63ff"/>
  <path id="Caminho_93" data-name="Caminho 93" d="M179.214,507.7a6.935,6.935,0,0,0-1.36.388c-9.779,3.905-9.616,29.468-9.616,29.468h-2.879a181.757,181.757,0,0,0-4.857-26.621c-3.559-14.081,11.037-26.7,14-29.094.334-.267.518-.408.518-.408C189.724,486.833,179.214,507.7,179.214,507.7Z" transform="translate(-159.947 -404.367)" fill="#afc0e0"/>
  <path id="Caminho_94" data-name="Caminho 94" d="M176.133,481.891c-.339-.156-.689-.3-1.061-.441,0,0-.181.141-.519.408-2.964,2.393-17.56,15.013-14,29.094A180.845,180.845,0,0,1,165.4,537.57h1.619a180.257,180.257,0,0,0-4.857-26.621C158.618,496.933,173.073,484.36,176.133,481.891Z" transform="translate(-159.988 -404.383)" fill="#fff" opacity="0.2"/>
  <path id="Caminho_95" data-name="Caminho 95" d="M432.817,510.936a179.721,179.721,0,0,0-4.851,26.618h-2.884s.181-26.716-10.285-29.7a5.723,5.723,0,0,0-.691-.161s-10.515-20.865,4.192-26.264c0,0,.149.111.417.326C421.439,483.937,436.416,496.691,432.817,510.936Z" transform="translate(-365.047 -404.367)" fill="#afc0e0"/>
  <path id="Caminho_96" data-name="Caminho 96" d="M244.95,507.714a6.935,6.935,0,0,0-1.36.388,177.529,177.529,0,0,1-3.35-26.244c.334-.267.519-.408.519-.408C255.46,486.849,244.95,507.714,244.95,507.714Z" transform="translate(-225.683 -404.383)" opacity="0.1"/>
  <path id="Caminho_97" data-name="Caminho 97" d="M418.744,481.808a163.352,163.352,0,0,1-3.918,26.107,5.726,5.726,0,0,0-.691-.161s-10.515-20.865,4.192-26.264C418.322,481.481,418.471,481.592,418.744,481.808Z" transform="translate(-365.071 -404.414)" opacity="0.1"/>
  <path id="Caminho_98" data-name="Caminho 98" d="M275.443,163.647q-1.523,6.008-3.57,12.328s-6.476,6.746-22.118,0a118.648,118.648,0,0,1-3.281-11.895c-3.784-16.467-8.321-47.848,1.347-80.08A119.97,119.97,0,0,1,260,56.36s8.26,9.484,14.322,27.635S284.243,128.969,275.443,163.647Z" transform="translate(-227.152 -56.36)" fill="#e3e8f4"/>
  <circle id="Elipse_12" data-name="Elipse 12" cx="12.986" cy="12.986" r="12.986" transform="translate(21.176 40.242)" fill="#afc0e0"/>
  <path id="Caminho_99" data-name="Caminho 99" d="M316.008,308.418a9.21,9.21,0,0,1-15.048,7.123,9.305,9.305,0,0,1-1.726-1.873,9.067,9.067,0,0,1-.595-.977,9.192,9.192,0,0,1-1.05-4.273V308.2a9.221,9.221,0,0,1,6.708-8.651,9.524,9.524,0,0,1,2.219-.337h.276A9.21,9.21,0,0,1,316.008,308.418Z" transform="translate(-272.636 -255.182)" fill="#a980a2"/>
  <path id="Caminho_100" data-name="Caminho 100" d="M300.409,83.995c-14.734,7.054-26.509,0-26.509,0A119.973,119.973,0,0,1,286.089,56.36S294.348,65.844,300.409,83.995Z" transform="translate(-253.241 -56.36)" fill="#afc0e0"/>
  <path id="Caminho_101" data-name="Caminho 101" d="M295.456,648.14q-1.033,4.068-2.3,8.276-.6,2.007-1.269,4.047s-6.476,6.746-22.118,0c0,0-.508-1.43-1.269-4.047-.569-1.976-1.278-4.625-2.018-7.848a39.244,39.244,0,0,0,14.089,2.486A38.817,38.817,0,0,0,295.456,648.14Z" transform="translate(-247.166 -540.853)" fill="#afc0e0"/>
  <path id="Caminho_102" data-name="Caminho 102" d="M302.266,693.79q-.6,2.007-1.269,4.047s-6.476,6.746-22.118,0c0,0-.508-1.43-1.269-4.047C277.608,693.79,293.551,698.377,302.266,693.79Z" transform="translate(-256.278 -578.227)" fill="#e3e8f4"/>
  <path id="Caminho_103" data-name="Caminho 103" d="M304.32,299.477l-.02.015-6.69,8.637v.219a9.192,9.192,0,0,0,1.05,4.273l7.883-13.481Z" transform="translate(-272.652 -255.125)" fill="#fff" opacity="0.2"/>
  <path id="Caminho_104" data-name="Caminho 104" d="M313.865,340.954l-5.479,8.2a9.306,9.306,0,0,1-1.726-1.873l6.527-7.005Z" transform="translate(-280.062 -288.807)" fill="#fff" opacity="0.2"/>
  <path id="Caminho_105" data-name="Caminho 105" d="M253.213,175.98a118.827,118.827,0,0,1-3.281-11.895c-3.784-16.469-8.321-47.849,1.347-80.082a120.414,120.414,0,0,1,10.669-25.035c-1.227-1.72-1.994-2.6-1.994-2.6A119.961,119.961,0,0,0,247.771,84c-9.668,32.233-5.131,63.613-1.347,80.082A118.833,118.833,0,0,0,249.7,175.98c6.18,2.663,10.928,3.222,14.413,2.924A34.336,34.336,0,0,1,253.213,175.98Z" transform="translate(-227.111 -56.368)" fill="#fff" opacity="0.2"/>
</svg>
